<svg width="25" height="25" viewBox="0 0 25 25" fill="none" xmlns="http://www.w3.org/2000/svg">
<g clip-path="url(#clip0_126_642)">
<path d="M-0.000703125 18.75C-0.000703125 19.1833 0.149297 19.5583 0.449297 19.875C0.749297 20.1917 1.1243 20.3417 1.5743 20.325H3.1243C3.1243 21.625 3.58263 22.725 4.4993 23.625C5.41596 24.525 6.5243 24.9833 7.8243 25H13.0493C11.9326 24.2167 11.0326 23.175 10.3493 21.875H7.8243C7.39096 21.875 7.01596 21.725 6.6993 21.425C6.38263 21.125 6.23263 20.7583 6.2493 20.325V4.7C6.2493 4.26667 6.3993 3.9 6.6993 3.6C6.9993 3.3 7.3743 3.14167 7.8243 3.125H20.3243C20.741 3.125 21.1076 3.28333 21.4243 3.6C21.741 3.91667 21.891 4.28333 21.8743 4.7V10.35C23.1743 11.0333 24.216 11.9333 24.9993 13.05V4.7C24.9993 3.4 24.541 2.29167 23.6243 1.375C22.7076 0.458333 21.6076 0 20.3243 0H7.8243C6.5243 0 5.41596 0.458333 4.4993 1.375C3.58263 2.29167 3.1243 3.4 3.1243 4.7H1.5743C1.14096 4.7 0.765964 4.85 0.449297 5.15C0.13263 5.45 -0.0173698 5.81667 -0.000703125 6.25C0.0159635 6.68333 0.165964 7.05833 0.449297 7.375C0.73263 7.69167 1.10763 7.84167 1.5743 7.825H3.1243V10.95H1.5743C1.14096 10.95 0.765964 11.1 0.449297 11.4C0.13263 11.7 -0.0173698 12.0667 -0.000703125 12.5C0.0159635 12.9333 0.165964 13.3083 0.449297 13.625C0.73263 13.9417 1.10763 14.0917 1.5743 14.075H3.1243V17.2H1.5743C1.14096 17.2 0.765964 17.35 0.449297 17.65C0.13263 17.95 -0.0173698 18.3167 -0.000703125 18.75ZM7.8243 18.75H9.4493C9.4493 18.7167 9.44096 18.6083 9.4243 18.425C9.40763 18.2417 9.39096 18.0917 9.3743 17.975C9.35763 17.8583 9.3743 17.7167 9.4243 17.55C9.4743 17.3833 9.48263 17.2667 9.4493 17.2H7.8243V18.75ZM7.8243 15.625H9.7493C9.8993 15.0583 10.0993 14.5417 10.3493 14.075H7.8243V15.625ZM7.8243 12.5H11.3993C11.916 11.8667 12.466 11.35 13.0493 10.95H7.8243V12.5ZM7.8243 9.375H20.3243V7.825H7.8243V9.375ZM7.8243 6.25H20.3243V4.7H7.8243V6.25ZM10.9493 17.975C10.9493 18.925 11.1326 19.8333 11.4993 20.7C11.866 21.5667 12.366 22.3167 12.9993 22.95C13.6326 23.5833 14.3826 24.0833 15.2493 24.45C16.116 24.8167 17.0243 25 17.9743 25C18.9243 25 19.8326 24.8167 20.6993 24.45C21.566 24.0833 22.316 23.5833 22.9493 22.95C23.5826 22.3167 24.0826 21.5667 24.4493 20.7C24.816 19.8333 24.9993 18.925 24.9993 17.975C24.9993 17.025 24.816 16.1167 24.4493 15.25C24.0826 14.3833 23.5826 13.6333 22.9493 13C22.316 12.3667 21.566 11.8667 20.6993 11.5C19.8326 11.1333 18.9243 10.95 17.9743 10.95C17.0243 10.95 16.116 11.1333 15.2493 11.5C14.3826 11.8667 13.6326 12.3667 12.9993 13C12.366 13.6333 11.866 14.3833 11.4993 15.25C11.1326 16.1167 10.9493 17.025 10.9493 17.975ZM14.0743 17.975C14.0743 16.8917 14.4493 15.975 15.1993 15.225C15.9493 14.475 16.8743 14.0917 17.9743 14.075C19.0743 14.0583 19.991 14.4417 20.7243 15.225C21.4576 16.0083 21.841 16.925 21.8743 17.975C21.8743 19.0583 21.491 19.975 20.7243 20.725C19.9576 21.475 19.041 21.8583 17.9743 21.875C16.9076 21.8917 15.9826 21.5083 15.1993 20.725C14.416 19.9417 14.041 19.025 14.0743 17.975ZM17.1993 17.975C17.1993 18.1917 17.2743 18.375 17.4243 18.525C17.5743 18.675 17.7576 18.75 17.9743 18.75H19.5243C19.741 18.75 19.9243 18.675 20.0743 18.525C20.2243 18.375 20.3076 18.1917 20.3243 17.975C20.341 17.7583 20.2576 17.575 20.0743 17.425C19.891 17.275 19.7076 17.2 19.5243 17.2H18.7493V16.425C18.7493 16.2083 18.6743 16.025 18.5243 15.875C18.3743 15.725 18.191 15.6417 17.9743 15.625C17.7576 15.6083 17.5743 15.6917 17.4243 15.875C17.2743 16.0583 17.1993 16.2417 17.1993 16.425V17.975Z" fill="#4D4F50"/>
</g>
<defs>
<clipPath id="clip0_126_642">
<rect width="25" height="25" fill="white"/>
</clipPath>
</defs>
</svg>
