<svg xmlns="http://www.w3.org/2000/svg" xmlns:xlink="http://www.w3.org/1999/xlink" width="500" zoomAndPan="magnify" viewBox="0 0 375 374.999991" height="500" preserveAspectRatio="xMidYMid meet" version="1.0"><defs><clipPath id="31f163fb31"><path d="M 5.304688 2 L 369.804688 2 L 369.804688 372 L 5.304688 372 Z M 5.304688 2 " clip-rule="nonzero"/></clipPath></defs><g clip-path="url(#31f163fb31)"><path fill="#333333" d="M 145.050781 144.628906 L 145.050781 48.628906 C 145.050781 35.199219 148.722656 24.289062 156.066406 15.894531 C 163.410156 7.292969 173.902344 2.992188 187.539062 2.992188 C 201.179688 2.992188 211.671875 7.292969 219.015625 15.894531 C 226.570312 24.289062 230.347656 35.199219 230.347656 48.628906 L 230.347656 144.628906 L 325.089844 144.628906 C 338.9375 144.628906 349.851562 148.40625 357.824219 155.957031 C 366.007812 163.304688 370.097656 173.6875 370.097656 187.117188 C 370.097656 200.757812 366.007812 211.355469 357.824219 218.910156 C 349.851562 226.460938 338.9375 230.238281 325.089844 230.238281 L 230.347656 230.238281 L 230.347656 325.921875 C 230.347656 339.5625 226.570312 350.578125 219.015625 358.96875 C 211.460938 367.363281 200.96875 371.5625 187.539062 371.5625 C 174.109375 371.5625 163.617188 367.363281 156.066406 358.96875 C 148.722656 350.578125 145.050781 339.5625 145.050781 325.921875 L 145.050781 230.238281 L 50.304688 230.238281 C 36.875 230.238281 25.964844 226.148438 17.570312 217.964844 C 9.386719 209.570312 5.296875 199.289062 5.296875 187.117188 C 5.296875 173.6875 9.285156 163.304688 17.257812 155.957031 C 25.441406 148.40625 36.457031 144.628906 50.304688 144.628906 Z M 145.050781 144.628906 " fill-opacity="1" fill-rule="nonzero"/></g></svg>
