<svg xmlns="http://www.w3.org/2000/svg" xmlns:xlink="http://www.w3.org/1999/xlink" width="500" zoomAndPan="magnify" viewBox="0 0 375 374.999991" height="500" preserveAspectRatio="xMidYMid meet" version="1.0"><defs><clipPath id="f7a7acdade"><path d="M 11 71 L 364 71 L 364 324.042969 L 11 324.042969 Z M 11 71 " clip-rule="nonzero"/></clipPath></defs><g clip-path="url(#f7a7acdade)"><path fill="#000000" d="M 359.273438 184.5 C 348.402344 167.085938 325.5 136.277344 289.753906 112.980469 L 309.460938 93.25 C 314.371094 88.332031 314.371094 80.371094 309.460938 75.457031 C 304.554688 70.539062 296.597656 70.539062 291.691406 75.457031 L 64.847656 302.566406 C 59.9375 307.484375 59.9375 315.445312 64.847656 320.359375 C 67.300781 322.820312 70.515625 324.046875 73.734375 324.046875 C 76.949219 324.046875 80.164062 322.820312 82.621094 320.359375 L 107.253906 295.699219 C 129.800781 306.417969 156.328125 313.589844 187.15625 313.589844 C 285.046875 313.589844 340.257812 241.777344 359.273438 211.3125 C 364.390625 203.125 364.390625 192.691406 359.273438 184.5 Z M 187.15625 273.40625 C 170.867188 273.40625 155.851562 268.167969 143.539062 259.367188 L 170.953125 231.921875 C 175.855469 234.292969 181.332031 235.65625 187.15625 235.65625 C 207.980469 235.65625 224.859375 218.757812 224.859375 197.910156 C 224.859375 192.078125 223.496094 186.597656 221.128906 181.6875 L 248.542969 154.242188 C 257.332031 166.566406 262.5625 181.601562 262.5625 197.910156 C 262.566406 239.605469 228.800781 273.40625 187.15625 273.40625 Z M 114.425781 217.597656 C 112.730469 211.3125 111.746094 204.730469 111.746094 197.910156 C 111.746094 156.210938 145.507812 122.410156 187.15625 122.410156 C 193.96875 122.410156 200.542969 123.398438 206.820312 125.09375 L 241.574219 90.296875 C 225.136719 85.304688 207.074219 82.226562 187.15625 82.226562 C 89.261719 82.226562 34.050781 154.039062 15.035156 184.5 C 9.921875 192.691406 9.921875 203.125 15.035156 211.3125 C 23.6875 225.175781 39.929688 247.574219 64.183594 267.898438 Z M 114.425781 217.597656 " fill-opacity="1" fill-rule="nonzero"/></g></svg>
