<svg xmlns="http://www.w3.org/2000/svg" xmlns:xlink="http://www.w3.org/1999/xlink" width="500" zoomAndPan="magnify" viewBox="0 0 375 374.999991" height="500" preserveAspectRatio="xMidYMid meet" version="1.0"><defs><clipPath id="a3a56458c2"><path d="M 45 100 L 331 100 L 331 357.609375 L 45 357.609375 Z M 45 100 " clip-rule="nonzero"/></clipPath></defs><path fill="#000000" d="M 359.261719 136.699219 L 301.542969 94.277344 L 301.542969 43.675781 C 301.542969 35.742188 295.097656 29.324219 287.171875 29.324219 L 263.808594 29.324219 C 255.871094 29.324219 249.4375 35.753906 249.4375 43.675781 L 249.4375 55.96875 L 205.425781 23.628906 C 195.878906 16.59375 180.246094 16.59375 170.695312 23.628906 L 16.863281 136.699219 C 7.3125 143.722656 5.253906 157.289062 12.285156 166.839844 L 16.535156 172.605469 C 23.554688 182.15625 37.128906 184.222656 46.667969 177.199219 L 170.695312 85.996094 C 180.246094 78.972656 195.878906 78.972656 205.425781 85.996094 L 329.445312 177.199219 C 338.996094 184.222656 352.558594 182.144531 359.578125 172.605469 L 363.839844 166.839844 C 370.859375 157.289062 368.800781 143.722656 359.261719 136.699219 Z M 359.261719 136.699219 " fill-opacity="1" fill-rule="nonzero"/><g clip-path="url(#a3a56458c2)"><path fill="#000000" d="M 313.242188 185.132812 L 205.394531 105.492188 C 195.855469 98.449219 180.269531 98.449219 170.730469 105.492188 L 62.882812 185.132812 C 53.347656 192.179688 45.542969 202.484375 45.542969 208.070312 L 45.542969 323.535156 C 45.542969 342.28125 61.625 357.484375 81.476562 357.484375 L 147.335938 357.484375 L 147.335938 255.347656 C 147.335938 247.457031 153.804688 241.007812 161.699219 241.007812 L 214.402344 241.007812 C 222.296875 241.007812 228.765625 247.457031 228.765625 255.347656 L 228.765625 357.484375 L 294.636719 357.484375 C 314.476562 357.484375 330.550781 342.28125 330.550781 323.535156 L 330.550781 208.070312 C 330.5625 202.484375 322.777344 192.179688 313.242188 185.132812 Z M 313.242188 185.132812 " fill-opacity="1" fill-rule="nonzero"/></g></svg>