<svg width="22" height="22" viewBox="0 0 22 22" fill="none" xmlns="http://www.w3.org/2000/svg">
<path d="M16.6664 9.64941H4.38573C3.41681 9.64941 2.63135 10.4349 2.63135 11.4038V17.5442C2.63135 18.5131 3.41681 19.2985 4.38573 19.2985H16.6664C17.6354 19.2985 18.4208 18.5131 18.4208 17.5442V11.4038C18.4208 10.4349 17.6354 9.64941 16.6664 9.64941Z" stroke="#797979" stroke-width="1.75439" stroke-linecap="round" stroke-linejoin="round"/>
<path d="M6.14014 9.64864V6.13987C6.14014 4.97664 6.60223 3.86105 7.42476 3.03853C8.24728 2.216 9.36287 1.75391 10.5261 1.75391C11.6893 1.75391 12.8049 2.216 13.6274 3.03853C14.45 3.86105 14.9121 4.97664 14.9121 6.13987V9.64864" stroke="#797979" stroke-width="1.75439" stroke-linecap="round" stroke-linejoin="round"/>
</svg>
