<svg xmlns="http://www.w3.org/2000/svg" xmlns:xlink="http://www.w3.org/1999/xlink" width="500" zoomAndPan="magnify" viewBox="0 0 375 374.999991" height="500" preserveAspectRatio="xMidYMid meet" version="1.0"><defs><clipPath id="a193fe98d1"><path d="M 133 71.78125 L 242 71.78125 L 242 180 L 133 180 Z M 133 71.78125 " clip-rule="nonzero"/></clipPath><clipPath id="2084108579"><path d="M 87 195 L 288 195 L 288 303.53125 L 87 303.53125 Z M 87 195 " clip-rule="nonzero"/></clipPath><clipPath id="57ca839121"><path d="M 10 226 L 94 226 L 94 303.53125 L 10 303.53125 Z M 10 226 " clip-rule="nonzero"/></clipPath><clipPath id="73ffa6aacd"><path d="M 281 226 L 365.3125 226 L 365.3125 303.53125 L 281 303.53125 Z M 281 226 " clip-rule="nonzero"/></clipPath></defs><g clip-path="url(#a193fe98d1)"><path fill="#000000" d="M 241.582031 125.855469 C 241.582031 127.625 241.496094 129.394531 241.320312 131.15625 C 241.148438 132.917969 240.890625 134.667969 240.542969 136.40625 C 240.199219 138.140625 239.769531 139.859375 239.257812 141.550781 C 238.742188 143.246094 238.148438 144.914062 237.46875 146.550781 C 236.792969 148.183594 236.039062 149.785156 235.203125 151.347656 C 234.371094 152.90625 233.460938 154.425781 232.476562 155.898438 C 231.496094 157.371094 230.441406 158.792969 229.320312 160.160156 C 228.199219 161.527344 227.011719 162.839844 225.761719 164.09375 C 224.507812 165.34375 223.199219 166.53125 221.832031 167.65625 C 220.464844 168.78125 219.046875 169.832031 217.574219 170.816406 C 216.101562 171.800781 214.585938 172.710938 213.027344 173.546875 C 211.464844 174.378906 209.867188 175.136719 208.234375 175.8125 C 206.601562 176.492188 204.9375 177.085938 203.242188 177.601562 C 201.550781 178.117188 199.835938 178.546875 198.101562 178.890625 C 196.367188 179.238281 194.617188 179.496094 192.855469 179.671875 C 191.097656 179.84375 189.332031 179.929688 187.5625 179.929688 C 185.792969 179.929688 184.027344 179.84375 182.265625 179.671875 C 180.507812 179.496094 178.757812 179.238281 177.023438 178.890625 C 175.289062 178.546875 173.574219 178.117188 171.878906 177.601562 C 170.1875 177.085938 168.523438 176.492188 166.890625 175.8125 C 165.253906 175.136719 163.65625 174.378906 162.097656 173.546875 C 160.535156 172.710938 159.019531 171.800781 157.550781 170.816406 C 156.078125 169.832031 154.660156 168.78125 153.292969 167.65625 C 151.921875 166.53125 150.613281 165.34375 149.363281 164.09375 C 148.113281 162.839844 146.925781 161.527344 145.804688 160.160156 C 144.679688 158.792969 143.628906 157.371094 142.644531 155.898438 C 141.660156 154.425781 140.753906 152.90625 139.917969 151.347656 C 139.085938 149.785156 138.328125 148.183594 137.652344 146.550781 C 136.976562 144.914062 136.378906 143.246094 135.867188 141.550781 C 135.351562 139.859375 134.925781 138.140625 134.578125 136.40625 C 134.234375 134.667969 133.972656 132.917969 133.800781 131.15625 C 133.628906 129.394531 133.539062 127.625 133.539062 125.855469 C 133.539062 124.085938 133.628906 122.316406 133.800781 120.554688 C 133.972656 118.792969 134.234375 117.042969 134.578125 115.304688 C 134.925781 113.570312 135.351562 111.851562 135.867188 110.160156 C 136.378906 108.464844 136.976562 106.796875 137.652344 105.160156 C 138.328125 103.527344 139.085938 101.925781 139.917969 100.363281 C 140.753906 98.804688 141.660156 97.285156 142.644531 95.8125 C 143.628906 94.339844 144.679688 92.917969 145.804688 91.550781 C 146.925781 90.179688 148.113281 88.871094 149.363281 87.617188 C 150.613281 86.367188 151.921875 85.179688 153.292969 84.054688 C 154.660156 82.929688 156.078125 81.878906 157.550781 80.894531 C 159.019531 79.910156 160.535156 79 162.097656 78.164062 C 163.65625 77.332031 165.253906 76.574219 166.890625 75.898438 C 168.523438 75.21875 170.1875 74.621094 171.878906 74.109375 C 173.574219 73.59375 175.289062 73.164062 177.023438 72.820312 C 178.757812 72.472656 180.507812 72.214844 182.265625 72.039062 C 184.027344 71.867188 185.792969 71.78125 187.5625 71.78125 C 189.332031 71.78125 191.097656 71.867188 192.855469 72.039062 C 194.617188 72.214844 196.367188 72.472656 198.101562 72.820312 C 199.835938 73.164062 201.550781 73.59375 203.242188 74.109375 C 204.9375 74.621094 206.601562 75.21875 208.234375 75.898438 C 209.867188 76.574219 211.464844 77.332031 213.027344 78.164062 C 214.585938 79 216.101562 79.910156 217.574219 80.894531 C 219.046875 81.878906 220.464844 82.929688 221.832031 84.054688 C 223.199219 85.179688 224.507812 86.367188 225.761719 87.617188 C 227.011719 88.871094 228.199219 90.179688 229.320312 91.550781 C 230.441406 92.917969 231.496094 94.339844 232.476562 95.8125 C 233.460938 97.285156 234.371094 98.804688 235.203125 100.363281 C 236.039062 101.925781 236.792969 103.527344 237.46875 105.160156 C 238.148438 106.796875 238.742188 108.464844 239.257812 110.160156 C 239.769531 111.851562 240.199219 113.570312 240.542969 115.304688 C 240.890625 117.042969 241.148438 118.792969 241.320312 120.554688 C 241.496094 122.316406 241.582031 124.085938 241.582031 125.855469 Z M 241.582031 125.855469 " fill-opacity="1" fill-rule="nonzero"/></g><path fill="#000000" d="M 334.1875 172.207031 C 334.1875 173.46875 334.128906 174.734375 334.003906 175.992188 C 333.878906 177.25 333.695312 178.5 333.449219 179.742188 C 333.203125 180.980469 332.894531 182.207031 332.527344 183.417969 C 332.160156 184.628906 331.734375 185.816406 331.253906 186.988281 C 330.769531 188.15625 330.230469 189.296875 329.632812 190.414062 C 329.039062 191.527344 328.386719 192.613281 327.6875 193.664062 C 326.984375 194.714844 326.234375 195.730469 325.429688 196.707031 C 324.628906 197.6875 323.78125 198.621094 322.886719 199.515625 C 321.992188 200.410156 321.058594 201.261719 320.082031 202.0625 C 319.105469 202.867188 318.089844 203.617188 317.039062 204.320312 C 315.988281 205.023438 314.90625 205.671875 313.792969 206.269531 C 312.679688 206.867188 311.535156 207.40625 310.371094 207.890625 C 309.203125 208.375 308.011719 208.800781 306.804688 209.167969 C 305.59375 209.535156 304.371094 209.839844 303.132812 210.089844 C 301.890625 210.335938 300.644531 210.519531 299.386719 210.644531 C 298.128906 210.769531 296.867188 210.832031 295.601562 210.832031 C 294.339844 210.832031 293.078125 210.769531 291.820312 210.644531 C 290.5625 210.519531 289.316406 210.335938 288.074219 210.089844 C 286.835938 209.839844 285.613281 209.535156 284.402344 209.167969 C 283.191406 208.800781 282.003906 208.375 280.835938 207.890625 C 279.667969 207.40625 278.527344 206.867188 277.414062 206.269531 C 276.300781 205.671875 275.214844 205.023438 274.164062 204.320312 C 273.113281 203.617188 272.101562 202.867188 271.125 202.0625 C 270.148438 201.261719 269.210938 200.410156 268.320312 199.515625 C 267.425781 198.621094 266.578125 197.6875 265.777344 196.707031 C 264.972656 195.730469 264.222656 194.714844 263.519531 193.664062 C 262.816406 192.613281 262.167969 191.527344 261.574219 190.414062 C 260.976562 189.296875 260.4375 188.15625 259.953125 186.988281 C 259.46875 185.816406 259.046875 184.628906 258.679688 183.417969 C 258.3125 182.207031 258.003906 180.980469 257.757812 179.742188 C 257.511719 178.5 257.328125 177.25 257.203125 175.992188 C 257.078125 174.734375 257.015625 173.46875 257.015625 172.207031 C 257.015625 170.941406 257.078125 169.679688 257.203125 168.417969 C 257.328125 167.160156 257.511719 165.910156 257.757812 164.671875 C 258.003906 163.429688 258.3125 162.203125 258.679688 160.992188 C 259.046875 159.78125 259.46875 158.59375 259.953125 157.425781 C 260.4375 156.253906 260.976562 155.113281 261.574219 153.996094 C 262.167969 152.882812 262.816406 151.796875 263.519531 150.746094 C 264.222656 149.695312 264.972656 148.679688 265.777344 147.703125 C 266.578125 146.722656 267.425781 145.789062 268.320312 144.894531 C 269.210938 144 270.148438 143.152344 271.125 142.347656 C 272.101562 141.546875 273.113281 140.792969 274.164062 140.089844 C 275.214844 139.386719 276.300781 138.738281 277.414062 138.140625 C 278.527344 137.542969 279.667969 137.003906 280.835938 136.519531 C 282.003906 136.035156 283.191406 135.609375 284.402344 135.242188 C 285.613281 134.875 286.835938 134.570312 288.074219 134.324219 C 289.316406 134.074219 290.5625 133.890625 291.820312 133.765625 C 293.078125 133.640625 294.339844 133.582031 295.601562 133.582031 C 296.867188 133.582031 298.128906 133.640625 299.386719 133.765625 C 300.644531 133.890625 301.890625 134.074219 303.132812 134.324219 C 304.371094 134.570312 305.59375 134.875 306.804688 135.242188 C 308.011719 135.609375 309.203125 136.035156 310.371094 136.519531 C 311.535156 137.003906 312.679688 137.542969 313.792969 138.140625 C 314.90625 138.738281 315.988281 139.386719 317.039062 140.089844 C 318.089844 140.792969 319.105469 141.546875 320.082031 142.347656 C 321.058594 143.152344 321.992188 144 322.886719 144.894531 C 323.78125 145.789062 324.628906 146.722656 325.429688 147.703125 C 326.234375 148.679688 326.984375 149.695312 327.6875 150.746094 C 328.386719 151.796875 329.039062 152.882812 329.632812 153.996094 C 330.230469 155.113281 330.769531 156.253906 331.253906 157.425781 C 331.734375 158.59375 332.160156 159.78125 332.527344 160.992188 C 332.894531 162.203125 333.203125 163.429688 333.449219 164.671875 C 333.695312 165.910156 333.878906 167.160156 334.003906 168.417969 C 334.128906 169.679688 334.1875 170.941406 334.1875 172.207031 Z M 334.1875 172.207031 " fill-opacity="1" fill-rule="nonzero"/><path fill="#000000" d="M 119.203125 172.207031 C 119.203125 173.46875 119.140625 174.734375 119.015625 175.992188 C 118.890625 177.25 118.707031 178.5 118.460938 179.742188 C 118.214844 180.980469 117.90625 182.207031 117.539062 183.417969 C 117.175781 184.628906 116.75 185.816406 116.265625 186.988281 C 115.78125 188.15625 115.242188 189.296875 114.644531 190.414062 C 114.050781 191.527344 113.402344 192.613281 112.699219 193.664062 C 111.996094 194.714844 111.246094 195.730469 110.445312 196.707031 C 109.640625 197.6875 108.792969 198.621094 107.902344 199.515625 C 107.007812 200.410156 106.070312 201.261719 105.09375 202.0625 C 104.117188 202.867188 103.105469 203.617188 102.054688 204.320312 C 101.003906 205.023438 99.917969 205.671875 98.804688 206.269531 C 97.691406 206.867188 96.550781 207.40625 95.382812 207.890625 C 94.214844 208.375 93.027344 208.800781 91.816406 209.167969 C 90.609375 209.535156 89.382812 209.839844 88.144531 210.089844 C 86.902344 210.335938 85.65625 210.519531 84.398438 210.644531 C 83.140625 210.769531 81.878906 210.832031 80.617188 210.832031 C 79.351562 210.832031 78.089844 210.769531 76.832031 210.644531 C 75.574219 210.519531 74.328125 210.335938 73.089844 210.089844 C 71.847656 209.839844 70.625 209.535156 69.414062 209.167969 C 68.207031 208.800781 67.015625 208.375 65.851562 207.890625 C 64.683594 207.40625 63.542969 206.867188 62.425781 206.269531 C 61.3125 205.671875 60.230469 205.023438 59.179688 204.320312 C 58.128906 203.617188 57.113281 202.867188 56.136719 202.0625 C 55.160156 201.261719 54.226562 200.410156 53.332031 199.515625 C 52.4375 198.621094 51.589844 197.6875 50.789062 196.707031 C 49.988281 195.730469 49.234375 194.714844 48.53125 193.664062 C 47.832031 192.613281 47.179688 191.527344 46.585938 190.414062 C 45.988281 189.296875 45.449219 188.15625 44.96875 186.988281 C 44.484375 185.816406 44.058594 184.628906 43.691406 183.417969 C 43.324219 182.207031 43.019531 180.980469 42.769531 179.742188 C 42.523438 178.5 42.339844 177.25 42.214844 175.992188 C 42.089844 174.734375 42.03125 173.46875 42.03125 172.207031 C 42.03125 170.941406 42.089844 169.679688 42.214844 168.417969 C 42.339844 167.160156 42.523438 165.910156 42.769531 164.671875 C 43.019531 163.429688 43.324219 162.203125 43.691406 160.992188 C 44.058594 159.78125 44.484375 158.59375 44.96875 157.425781 C 45.449219 156.253906 45.988281 155.113281 46.585938 153.996094 C 47.179688 152.882812 47.832031 151.796875 48.53125 150.746094 C 49.234375 149.695312 49.988281 148.679688 50.789062 147.703125 C 51.589844 146.722656 52.4375 145.789062 53.332031 144.894531 C 54.226562 144 55.160156 143.152344 56.136719 142.347656 C 57.113281 141.546875 58.128906 140.792969 59.179688 140.089844 C 60.230469 139.386719 61.3125 138.738281 62.425781 138.140625 C 63.542969 137.542969 64.683594 137.003906 65.851562 136.519531 C 67.015625 136.035156 68.207031 135.609375 69.414062 135.242188 C 70.625 134.875 71.847656 134.570312 73.089844 134.324219 C 74.328125 134.074219 75.574219 133.890625 76.832031 133.765625 C 78.089844 133.640625 79.351562 133.582031 80.617188 133.582031 C 81.878906 133.582031 83.140625 133.640625 84.398438 133.765625 C 85.65625 133.890625 86.902344 134.074219 88.144531 134.324219 C 89.382812 134.570312 90.609375 134.875 91.816406 135.242188 C 93.027344 135.609375 94.214844 136.035156 95.382812 136.519531 C 96.550781 137.003906 97.691406 137.542969 98.804688 138.140625 C 99.917969 138.738281 101.003906 139.386719 102.054688 140.089844 C 103.105469 140.792969 104.117188 141.546875 105.09375 142.347656 C 106.070312 143.152344 107.007812 144 107.902344 144.894531 C 108.792969 145.789062 109.640625 146.722656 110.445312 147.703125 C 111.246094 148.679688 111.996094 149.695312 112.699219 150.746094 C 113.402344 151.796875 114.050781 152.882812 114.644531 153.996094 C 115.242188 155.113281 115.78125 156.253906 116.265625 157.425781 C 116.75 158.59375 117.175781 159.78125 117.539062 160.992188 C 117.90625 162.203125 118.214844 163.429688 118.460938 164.671875 C 118.707031 165.910156 118.890625 167.160156 119.015625 168.417969 C 119.140625 169.679688 119.203125 170.941406 119.203125 172.207031 Z M 119.203125 172.207031 " fill-opacity="1" fill-rule="nonzero"/><g clip-path="url(#2084108579)"><path fill="#000000" d="M 187.5625 195.378906 C 132.246094 195.378906 87.238281 240.433594 87.238281 295.804688 C 87.238281 300.070312 90.695312 303.53125 94.953125 303.53125 L 280.167969 303.53125 C 284.429688 303.53125 287.886719 300.070312 287.886719 295.804688 C 287.886719 240.433594 242.878906 195.378906 187.5625 195.378906 Z M 187.5625 195.378906 " fill-opacity="1" fill-rule="nonzero"/></g><g clip-path="url(#57ca839121)"><path fill="#000000" d="M 93.921875 227.949219 C 89.199219 226.945312 84.398438 226.28125 79.519531 226.28125 C 41.226562 226.28125 10.066406 257.472656 10.066406 295.804688 C 10.066406 300.070312 13.523438 303.53125 17.78125 303.53125 L 73.222656 303.53125 C 72.359375 301.105469 71.804688 298.523438 71.804688 295.804688 C 71.804688 270.453125 80.074219 247.046875 93.921875 227.949219 Z M 93.921875 227.949219 " fill-opacity="1" fill-rule="nonzero"/></g><g clip-path="url(#73ffa6aacd)"><path fill="#000000" d="M 295.601562 226.28125 C 290.726562 226.28125 285.925781 226.945312 281.203125 227.949219 C 295.046875 247.046875 303.320312 270.453125 303.320312 295.804688 C 303.320312 298.523438 302.765625 301.105469 301.902344 303.53125 L 357.339844 303.53125 C 361.601562 303.53125 365.058594 300.070312 365.058594 295.804688 C 365.058594 257.472656 333.894531 226.28125 295.601562 226.28125 Z M 295.601562 226.28125 " fill-opacity="1" fill-rule="nonzero"/></g></svg>