<svg width="527" height="455" viewBox="0 0 527 455" fill="none" xmlns="http://www.w3.org/2000/svg">
<path d="M164.541 227.5H109.499C101.414 227.5 94.8604 233.159 94.8604 240.139V360.461C94.8604 367.441 101.414 373.1 109.499 373.1H164.541C172.626 373.1 179.18 367.441 179.18 360.461V240.139C179.18 233.159 172.626 227.5 164.541 227.5Z" fill="#4D4F50"/>
<path d="M291.021 81.9004H235.979C227.894 81.9004 221.34 87.559 221.34 94.5393V360.462C221.34 367.442 227.894 373.1 235.979 373.1H291.021C299.106 373.1 305.66 367.442 305.66 360.462V94.5393C305.66 87.559 299.106 81.9004 291.021 81.9004Z" fill="#4D4F50"/>
<path d="M417.501 178.967H362.459C354.374 178.967 347.82 184.625 347.82 191.606V360.461C347.82 367.442 354.374 373.1 362.459 373.1H417.501C425.586 373.1 432.14 367.442 432.14 360.461V191.606C432.14 184.625 425.586 178.967 417.501 178.967Z" fill="#4D4F50"/>
</svg>
