<svg xmlns="http://www.w3.org/2000/svg" xmlns:xlink="http://www.w3.org/1999/xlink" width="500" zoomAndPan="magnify" viewBox="0 0 375 374.999991" height="500" preserveAspectRatio="xMidYMid meet" version="1.0"><defs><clipPath id="1f8a6b186c"><path d="M 6 78.503906 L 369 78.503906 L 369 315.503906 L 6 315.503906 Z M 6 78.503906 " clip-rule="nonzero"/></clipPath></defs><g clip-path="url(#1f8a6b186c)"><path fill="#000000" d="M 364.394531 183.273438 C 344.859375 152.066406 288.148438 78.507812 187.597656 78.507812 C 87.042969 78.507812 30.332031 152.066406 10.800781 183.273438 C 5.546875 191.660156 5.546875 202.347656 10.800781 210.734375 C 30.332031 241.941406 87.042969 315.5 187.597656 315.5 C 288.148438 315.5 344.859375 241.941406 364.394531 210.734375 C 369.648438 202.347656 369.648438 191.660156 364.394531 183.273438 Z M 187.597656 274.339844 C 144.816406 274.339844 110.136719 239.714844 110.136719 197.003906 C 110.136719 154.292969 144.816406 119.667969 187.597656 119.667969 C 230.375 119.667969 265.054688 154.292969 265.054688 197.003906 C 265.054688 239.714844 230.375 274.339844 187.597656 274.339844 Z M 213.417969 184.113281 C 206.289062 184.113281 200.507812 178.34375 200.507812 171.226562 C 200.507812 167.710938 201.933594 164.539062 204.21875 162.214844 C 199.164062 159.800781 193.574219 158.335938 187.597656 158.335938 C 166.207031 158.335938 148.867188 175.648438 148.867188 197.003906 C 148.867188 218.359375 166.207031 235.671875 187.597656 235.671875 C 208.988281 235.671875 226.328125 218.359375 226.328125 197.003906 C 226.328125 191.039062 224.859375 185.453125 222.445312 180.410156 C 220.113281 182.691406 216.9375 184.113281 213.417969 184.113281 Z M 213.417969 184.113281 " fill-opacity="1" fill-rule="nonzero"/></g></svg>